<svg width="512" height="512" viewBox="0 0 512 512" fill="none" xmlns="http://www.w3.org/2000/svg">
  <defs>
    <linearGradient id="bg" x1="0" y1="0" x2="512" y2="512" gradientUnits="userSpaceOnUse">
      <stop stop-color="#6D6F78"/>
      <stop offset="1" stop-color="#43464E"/>
    </linearGradient>
    <radialGradient id="head" cx="0" cy="0" r="1" gradientUnits="userSpaceOnUse" gradientTransform="translate(256 175) rotate(90) scale(123 123)">
      <stop stop-color="#17191F"/>
      <stop offset="1" stop-color="#020304"/>
    </radialGradient>
    <radialGradient id="body" cx="0" cy="0" r="1" gradientUnits="userSpaceOnUse" gradientTransform="translate(256 400) rotate(90) scale(171 128)">
      <stop stop-color="#0D0E13"/>
      <stop offset="1" stop-color="#000000"/>
    </radialGradient>
  </defs>
  <rect width="512" height="512" rx="48" fill="url(#bg)"/>
  <ellipse cx="256" cy="382" rx="118" ry="144" fill="url(#body)"/>
  <circle cx="256" cy="168" r="94" fill="url(#head)"/>
  <path d="M157 176C157 122 201 78 256 78C311 78 355 122 355 176" stroke="#0B0D11" stroke-width="18" stroke-linecap="round"/>
  <path d="M172 168C172 122 209 85 256 85C303 85 340 122 340 168" stroke="#1E2129" stroke-width="8" stroke-linecap="round"/>
  <rect x="122" y="124" width="54" height="92" rx="26" fill="#0E1016"/>
  <rect x="336" y="124" width="54" height="92" rx="26" fill="#0E1016"/>
  <rect x="130" y="132" width="38" height="76" rx="19" fill="#171A22"/>
  <rect x="344" y="132" width="38" height="76" rx="19" fill="#171A22"/>
  <g fill="white">
    <path d="M218 141L223 155L237 160L223 165L218 179L213 165L199 160L213 155L218 141Z"/>
    <path d="M262 162L266 172L276 176L266 180L262 190L258 180L248 176L258 172L262 162Z"/>
    <path d="M304 142L308 151L317 155L308 159L304 168L300 159L291 155L300 151L304 142Z"/>
    <path d="M226 198L229 206L237 209L229 212L226 220L223 212L215 209L223 206L226 198Z"/>
    <path d="M282 182L287 195L300 200L287 205L282 218L277 205L264 200L277 195L282 182Z"/>
  </g>
</svg>
